/* XPM */
static char * close_active_xpm[] = {
"28 28 8 1",
" 	c None",
".	c #5294E2",
"+	c #FEFEFE",
"@	c #EAF2FB",
"#	c #7DAEE8",
"$	c #7BADE8",
"%	c #E4EEFA",
"&	c #EBF2FB",
"............................",
"............................",
"............................",
"............................",
"............................",
"............................",
"............................",
"............................",
"............................",
".........+@#....$%+.........",
".........@+%$..$%+%.........",
".........#%+%$$%+%$.........",
"..........$%+&&+%$..........",
"...........$&++&$...........",
"...........$&++&$...........",
"..........$%+&&+%$..........",
".........#%+%$$%+%$.........",
".........@+%$..$%+%.........",
".........+@#....$%+.........",
"............................",
"............................",
"............................",
"............................",
"............................",
"............................",
"............................",
"............................",
"............................"};
