/* XPM */
static char * close_prelight_xpm[] = {
"28 28 9 1",
" 	c None",
".	c #5294E2",
"+	c #C4DAF5",
"@	c #B6D1F2",
"#	c #6EA5E6",
"$	c #6DA5E6",
"%	c #B3CFF2",
"&	c #C3D9F4",
"*	c #B7D2F2",
"............................",
"............................",
"............................",
"............................",
"............................",
"............................",
"............................",
"............................",
"............................",
".........+@#....$%&.........",
".........@&%$..$%&%.........",
".........#%&%$$%&%$.........",
"..........$%&**&%$..........",
"...........$*++*$...........",
"...........$*++*$...........",
"..........$%&**&%$..........",
".........#%&%$$%&%$.........",
".........@&%$..$%&%.........",
".........+@#....$%&.........",
"............................",
"............................",
"............................",
"............................",
"............................",
"............................",
"............................",
"............................",
"............................"};
