/* XPM */
static char * close_inactive_xpm[] = {
"28 28 11 1",
" 	c None",
".	c #4B86CF",
"+	c #DADDE0",
"@	c #ADC1DA",
"#	c #5F92D1",
"$	c #D7DADF",
"%	c #A6BDDA",
"&	c #5E91D1",
"*	c #AEC2DA",
"=	c #DCDEE0",
"-	c #D5DADF",
"............................",
"............................",
"............................",
"............................",
"............................",
"............................",
"............................",
"............................",
"............................",
".........+@#....#@+.........",
".........@$%&..&%$@.........",
".........#%$%&&%$%#.........",
"..........&%$**$%&..........",
"...........&*==*&...........",
"...........&*==*&...........",
"..........&%$**$%&..........",
".........&%$%&&%$%&.........",
".........%$%&..&%$%.........",
".........-%&....&%$.........",
"............................",
"............................",
"............................",
"............................",
"............................",
"............................",
"............................",
"............................",
"............................"};
