/* XPM */
static char * close_inactive_xpm[] = {
"28 28 8 1",
" 	c None",
".	c #4B86CF",
"+	c #E1E1E1",
"@	c #CFD6DE",
"#	c #709CD3",
"$	c #6F9CD3",
"%	c #CAD3DE",
"&	c #E0E0E0",
"............................",
"............................",
"............................",
"............................",
"............................",
"............................",
"............................",
"............................",
"............................",
".........+@#....$%&.........",
".........@&%$..$%&%.........",
".........#%&%$$%&%$.........",
"..........$%&@@&%$..........",
"...........$@++@$...........",
"...........$@++@$...........",
"..........$%&@@&%$..........",
".........#%&%$$%&%$.........",
".........@&%$..$%&%.........",
".........+@#....$%&.........",
"............................",
"............................",
"............................",
"............................",
"............................",
"............................",
"............................",
"............................",
"............................"};
