/* XPM */
static char * hide_inactive_xpm[] = {
"28 28 11 1",
" 	c None",
".	c #4B86CF",
"+	c #4D87CF",
"@	c #4C86CF",
"#	c #9DB7D8",
"$	c #96B3D8",
"%	c #92B1D7",
"&	c #DDDEE0",
"*	c #DCDEE0",
"=	c #DADDE0",
"-	c #4E88CF",
"............................",
"............................",
"............................",
"............................",
"............................",
"............................",
"............................",
"............................",
"............................",
"............................",
"............................",
".........+@@@@@@@@@.........",
".........#$%%%%%%%%.........",
".........&*========.........",
".........&*========.........",
".........#$%%%%%%%%.........",
".........-+++++++++.........",
"............................",
"............................",
"............................",
"............................",
"............................",
"............................",
"............................",
"............................",
"............................",
"............................",
"............................"};
