/* XPM */
static char * hide_inactive_xpm[] = {
"28 28 10 1",
" 	c None",
".	c #4B86CF",
"+	c #4D87CF",
"@	c #4C87CF",
"#	c #A1BAD9",
"$	c #99B5D8",
"%	c #96B3D8",
"&	c #DEDFE0",
"*	c #DDDEE0",
"=	c #DCDEE0",
"............................",
"............................",
"............................",
"............................",
"............................",
"............................",
"............................",
"............................",
"............................",
"............................",
"............................",
".........+@@@@@@@@@.........",
".........#$%%%%%%%%.........",
".........&*========.........",
".........#$%%%%%%%%.........",
".........+@@@@@@@@@.........",
"............................",
"............................",
"............................",
"............................",
"............................",
"............................",
"............................",
"............................",
"............................",
"............................",
"............................",
"............................"};
