/* XPM */
static char * hide_prelight_xpm[] = {
"28 28 10 1",
" 	c None",
".	c #5294E2",
"+	c #5495E2",
"@	c #B5D1F2",
"#	c #ACCCF1",
"$	c #A8C9F0",
"%	c #FBFCFE",
"&	c #FAFCFE",
"*	c #F9FBFE",
"=	c #5596E2",
"............................",
"............................",
"............................",
"............................",
"............................",
"............................",
"............................",
"............................",
"............................",
"............................",
"............................",
".........++++++++++.........",
".........@#$$$$$$$$.........",
".........%&********.........",
".........@#$$$$$$$$.........",
".........=+++++++++.........",
"............................",
"............................",
"............................",
"............................",
"............................",
"............................",
"............................",
"............................",
"............................",
"............................",
"............................",
"............................"};
