/* XPM */
static char * maximize_pressed_xpm[] = {
"28 28 13 1",
" 	c None",
".	c #5294E2",
"+	c #66A0E5",
"@	c #F2F7FC",
"#	c #F8FBFD",
"$	c #FEFEFE",
"%	c #7CAEE9",
"&	c #FAFCFE",
"*	c #FFFFFF",
"=	c #7EAFE9",
"-	c #F7FAFD",
";	c #85B3EA",
">	c #F4F8FD",
"............................",
"............................",
"............................",
"............................",
"............................",
"............................",
"............................",
"............................",
"............................",
"..............+@#$$.........",
"...............%&**.........",
"................=-$.........",
".................;>.........",
"..................+.........",
".........+..................",
".........>;.................",
".........$-=................",
".........**&%...............",
".........$$#@+..............",
"............................",
"............................",
"............................",
"............................",
"............................",
"............................",
"............................",
"............................",
"............................"};
