/* XPM */
static char * maximize_inactive_xpm[] = {
"28 28 24 1",
" 	c None",
".	c #4B86CF",
"+	c #4E88CF",
"@	c #6D9AD3",
"#	c #AFC3DB",
"$	c #D1D7DF",
"%	c #DADDE0",
"&	c #E1E1E1",
"*	c #4F88CF",
"=	c #7BA3D4",
"-	c #C1CDDD",
";	c #D6DADF",
">	c #E0E0E0",
",	c #538BD0",
"'	c #85A9D6",
")	c #C7D1DD",
"!	c #DCDEE0",
"~	c #548BD0",
"{	c #98B5D8",
"]	c #D4D9DF",
"^	c #538ACF",
"/	c #4C87CF",
"(	c #5F92D1",
"_	c #94B2D7",
"............................",
"............................",
"............................",
"............................",
"............................",
"............................",
"............................",
"............................",
"............................",
".............+@#$%&.........",
"..............*=-;>.........",
"...............,')!.........",
"................~{].........",
".........^/......(_.........",
"........._(....../^.........",
".........]{~................",
".........!)',...............",
".........>;-=*..............",
".........&%$#@+.............",
"............................",
"............................",
"............................",
"............................",
"............................",
"............................",
"............................",
"............................",
"............................"};
