/* XPM */
static char * maximize_pressed_xpm[] = {
"28 28 22 1",
" 	c None",
".	c #5294E2",
"+	c #5696E2",
"@	c #79ACE8",
"#	c #C6DBF5",
"$	c #EDF4FC",
"%	c #F7FAFD",
"&	c #FFFFFF",
"*	c #89B6EB",
"=	c #DAE8F8",
"-	c #F2F7FC",
";	c #FEFEFE",
">	c #5C9AE3",
",	c #95BDED",
"'	c #E1ECFA",
")	c #F9FBFE",
"!	c #ABCBF1",
"~	c #F0F5FC",
"{	c #5B99E3",
"]	c #5495E2",
"^	c #69A2E5",
"/	c #A6C8F0",
"............................",
"............................",
"............................",
"............................",
"............................",
"............................",
"............................",
"............................",
"............................",
".............+@#$%&.........",
"..............+*=-;.........",
"...............>,').........",
"................>!~.........",
".........{]......^/.........",
"........./^......]{.........",
".........~!>................",
".........)',>...............",
".........;-=*+..............",
".........&%$#@+.............",
"............................",
"............................",
"............................",
"............................",
"............................",
"............................",
"............................",
"............................",
"............................"};
