/* XPM */
static char * menu_inactive_xpm[] = {
"28 28 6 1",
" 	c None",
".	c #4B86CF",
"+	c #598ED0",
"@	c #93B2D7",
"#	c #DADDE0",
"$	c #E0E0E0",
"............................",
"............................",
"............................",
"............................",
"............................",
"............................",
"............................",
"............................",
"............................",
"............................",
"............................",
".............++.............",
"............@##@............",
"...........+#$$#+...........",
"...........+#$$#+...........",
"............@##@............",
".............++.............",
"............................",
"............................",
"............................",
"............................",
"............................",
"............................",
"............................",
"............................",
"............................",
"............................",
"............................"};
