/* XPM */
static char * shade_pressed_xpm[] = {
"28 28 40 1",
" 	c None",
".	c #5294E2",
"+	c #4379B9",
"@	c #1D3551",
"#	c #5091DD",
"$	c #000102",
"%	c #203A58",
"&	c #3C6DA7",
"*	c #080F17",
"=	c #000101",
"-	c #0A121C",
";	c #3D6FAA",
">	c #4882C7",
",	c #16283D",
"'	c #010204",
")	c #010305",
"!	c #020507",
"~	c #122234",
"{	c #4780C4",
"]	c #4C8AD3",
"^	c #244164",
"/	c #030609",
"(	c #000000",
"_	c #04080C",
":	c #2A4C74",
"<	c #4D8BD4",
"[	c #4176B4",
"}	c #111F30",
"|	c #020406",
"1	c #030508",
"2	c #142539",
"3	c #4175B3",
"4	c #5192E0",
"5	c #5193E1",
"6	c #366397",
"7	c #39689F",
"8	c #3B6BA3",
"9	c #0C1621",
"0	c #0E1A28",
"a	c #101E2E",
"............................",
"............................",
"............................",
"............................",
"............................",
"............................",
"............................",
"............................",
"............................",
"............+@@+............",
"...........#@$$%#...........",
"...........&*=$-;...........",
"..........>,'')!~{..........",
".........]^/$(='_:<.........",
".........[}'(=|(123.........",
"............................",
".........4555555555.........",
".........6788888888.........",
".........90aaaaaaaa.........",
"............................",
"............................",
"............................",
"............................",
"............................",
"............................",
"............................",
"............................",
"............................"};
