/* XPM */
static char * shade_active_xpm[] = {
"28 28 38 1",
" 	c None",
".	c #5294E2",
"+	c #71A7E7",
"@	c #C0D8F4",
"#	c #5596E2",
"$	c #FCFDFE",
"%	c #BBD5F3",
"&	c #7EAFE9",
"*	c #ECF3FB",
"=	c #FDFEFE",
"-	c #E9F1FB",
";	c #7CAEE9",
">	c #66A0E5",
",	c #D0E2F7",
"'	c #FBFCFE",
")	c #FAFCFE",
"!	c #F8FBFD",
"~	c #D6E6F8",
"{	c #68A1E5",
"]	c #5C9AE3",
"^	c #B2CFF2",
"/	c #F7FAFD",
"(	c #FFFFFF",
"_	c #F5F9FD",
":	c #A5C7EF",
"<	c #74A9E7",
"[	c #D9E7F8",
"}	c #FEFEFE",
"|	c #F8FAFD",
"1	c #D2E3F7",
"2	c #75A9E7",
"3	c #5394E2",
"4	c #8AB7EB",
"5	c #84B3EA",
"6	c #81B1E9",
"7	c #E5EFFA",
"8	c #DFEBF9",
"9	c #DBE9F9",
"............................",
"............................",
"............................",
"............................",
"............................",
"............................",
"............................",
"............................",
"............................",
"............+@@+............",
"...........#@$$%#...........",
"...........&*=$-;...........",
"..........>,'')!~{..........",
".........]^/$(='_:].........",
".........<['}=)}|12.........",
"............................",
".........3..................",
".........4566666666.........",
".........7899999999.........",
"............................",
"............................",
"............................",
"............................",
"............................",
"............................",
"............................",
"............................",
"............................"};
