/* XPM */
static char * shade_inactive_xpm[] = {
"28 28 13 1",
" 	c None",
".	c #4B86CF",
"+	c #86AAD6",
"@	c #4D87CF",
"#	c #CFD6DE",
"$	c #85A9D5",
"%	c #E1E1E1",
"&	c #4C87CF",
"*	c #CAD3DE",
"=	c #7FA6D5",
"-	c #C6D0DD",
";	c #749FD4",
">	c #BDCBDC",
"............................",
"............................",
"............................",
"............................",
"............................",
"............................",
"............................",
"............................",
"............................",
".............++.............",
"............@##@............",
"............$%%$............",
"...........&*%%*&...........",
"...........=%%%%=...........",
"...........-%%%%-...........",
"............................",
"............................",
".........;%%%%%%%%;.........",
".........>%%%%%%%%>.........",
"............................",
"............................",
"............................",
"............................",
"............................",
"............................",
"............................",
"............................",
"............................"};
