/* XPM */
static char * shade_toggled_active_xpm[] = {
"28 28 13 1",
" 	c None",
".	c #5294E2",
"+	c #D5E5F8",
"@	c #FFFFFF",
"#	c #82B1EA",
"$	c #E0ECF9",
"%	c #8FB9EC",
"&	c #5495E2",
"*	c #E5EFFA",
"=	c #95BDED",
"-	c #5596E2",
";	c #EBF2FB",
">	c #96BEED",
"............................",
"............................",
"............................",
"............................",
"............................",
"............................",
"............................",
"............................",
"............................",
".........+@@@@@@@@+.........",
".........#@@@@@@@@#.........",
"............................",
"............................",
"...........$@@@@$...........",
"...........%@@@@%...........",
"...........&*@@*&...........",
"............=@@=............",
"............-;;-............",
".............>>.............",
"............................",
"............................",
"............................",
"............................",
"............................",
"............................",
"............................",
"............................",
"............................"};
