/* XPM */
static char * stick_inactive_xpm[] = {
"28 28 19 1",
" 	c None",
".	c #4B86CF",
"+	c #4D87CF",
"@	c #9DB7D8",
"#	c #DDDEE0",
"$	c #4C86CF",
"%	c #96B3D8",
"&	c #DCDEE0",
"*	c #92B1D7",
"=	c #DADDE0",
"-	c #B7C8DC",
";	c #E1E1E1",
">	c #9EB8D9",
",	c #98B4D8",
"'	c #94B2D7",
")	c #B8C8DC",
"!	c #DEDFE0",
"~	c #93B2D7",
"{	c #4E88CF",
"............................",
"............................",
"............................",
"............................",
"............................",
"............................",
"............................",
"............................",
"............................",
"...........+@##@+...........",
"...........$%&&%$...........",
".........+$+*==*+$$.........",
".........@%*-##-***.........",
".........#&=#;;#===.........",
".........#&=#;;#===.........",
".........>,')!!)'~~.........",
".........{+{*==*{++.........",
"...........$*==*$...........",
"...........$*==*$...........",
"............................",
"............................",
"............................",
"............................",
"............................",
"............................",
"............................",
"............................",
"............................"};
