/* XPM */
static char * stick_inactive_xpm[] = {
"28 28 13 1",
" 	c None",
".	c #4B86CF",
"+	c #4C86CF",
"@	c #7CA3D4",
"#	c #CAD3DE",
"$	c #77A0D4",
"%	c #C5D0DD",
"&	c #749FD4",
"*	c #C2CEDD",
"=	c #92B1D7",
"-	c #749ED3",
";	c #DADDE0",
">	c #4C87CF",
"............................",
"............................",
"............................",
"............................",
"............................",
"............................",
"............................",
"............................",
"............................",
"...........+@##@+...........",
"............$%%$............",
".........+.+&**&+...........",
".........@$&=##=&--.........",
".........#%*#;;#***.........",
".........#%*#;;#***.........",
".........@$&=##=&--.........",
".........>+>&**&>++.........",
"............-**-............",
"............-**-............",
"............................",
"............................",
"............................",
"............................",
"............................",
"............................",
"............................",
"............................",
"............................"};
