/* XPM */
static char * stick_toggled_active_xpm[] = {
"28 28 20 1",
" 	c None",
".	c #5294E2",
"+	c #5091DE",
"@	c #244265",
"#	c #010305",
"$	c #5192E0",
"%	c #284970",
"&	c #020407",
"*	c #2A4D75",
"=	c #030609",
"-	c #16283E",
";	c #2B4D76",
">	c #000000",
",	c #244164",
"'	c #27476D",
")	c #294B73",
"!	c #16283D",
"~	c #010204",
"{	c #2A4C74",
"]	c #5090DC",
"............................",
"............................",
"............................",
"............................",
"............................",
"............................",
"............................",
"............................",
"............................",
"...........+@##@+...........",
"...........$%&&%$...........",
".........+$+*==*+$$.........",
".........@%*-##-*;;.........",
".........#&=#>>#===.........",
".........#&=#>>#===.........",
".........,')!~~!){{.........",
".........]+]*==*]++.........",
"...........$;==;$...........",
"...........$;==;$...........",
"............................",
"............................",
"............................",
"............................",
"............................",
"............................",
"............................",
"............................",
"............................"};
